<?xml version="1.0" encoding="UTF-8" standalone="no" ?>
<!-- Created with Inkscape (http://www.inkscape.org/) -->
<svg
  width="1024"
  height="1024"
  viewBox="0 0 1024 1024"
  version="1.1"
  id="svg1"
  xml:space="preserve"
  xmlns="http://www.w3.org/2000/svg"
  xmlns:svg="http://www.w3.org/2000/svg"
><defs id="defs1" /><g
    id="layer1"
    transform="translate(-35.966213)"
    style="display:inline"
  >
    <g id="g6" style="display:none">
      <path
        id="rect1"
        d="m 514.51068,316.65878 c 0,26.65533 -7.24377,67.68003 -59.91884,68.45636 -52.64312,0.77585 -64.18665,-27.18454 -68.44703,-72.36485 -2.98487,-31.65378 128.36587,-35.86825 128.36587,3.90849 z m 67.55784,0 c 0,26.65533 7.24377,67.68003 59.91884,68.45636 52.64312,0.77585 64.18665,-27.18454 68.44703,-72.36485 2.98487,-31.65378 -128.36587,-35.86825 -128.36587,3.90849 z"
        style="fill:none;fill-rule:evenodd;stroke:#000000;stroke-width:0.5;stroke-dasharray:none;stroke-opacity:1"
      />
      <path
        id="path3"
        style="fill:none;fill-rule:evenodd;stroke:#000000;stroke-width:0.5;stroke-dasharray:none;stroke-opacity:1"
        d="m 530.67335,321.01354 c -3.63581,21.1526 -1.32378,77.85276 -74.88181,78.93686 -73.51341,1.08344 -76.9825,-36.99252 -85.25907,-82.11013 l -4.91635,-2.58698 7.18017,-34.87273 c 0,0 9.2157,2.29321 10.42435,2.13498 41.40632,-5.42038 119.34809,-10.97873 139.28594,12.7788 m 0,0 25.78302,-3.25924 v 26.87006 l -17.61625,2.10838 m 35.2325,0 c 3.63581,21.1526 1.32378,77.85276 74.88181,78.93686 73.51341,1.08344 76.9825,-36.99252 85.25907,-82.11013 l 4.91635,-2.58698 -7.18017,-34.87273 c 0,0 -9.2157,2.29321 -10.42435,2.13498 -41.40632,-5.42038 -119.34809,-10.97873 -139.28594,12.7788 m 0,0 -25.78302,-3.25924 v 26.87006 l 17.61625,2.10838"
      />
      <path
        style="display:none;opacity:1;fill:none;fill-rule:evenodd;stroke:#000000;stroke-width:0.5;stroke-dasharray:none;stroke-opacity:1"
        d="m 530.67335,321.01354 c 0,0 0.88386,-3.22448 17.61625,-3.22448 v -25.27589 c -15.19039,0 -25.78302,2.78117 -25.78302,2.78117 m 43.39927,25.7192 c 0,0 -0.88386,-3.22448 -17.61625,-3.22448 v -25.27589 c 15.19039,0 25.78302,2.78117 25.78302,2.78117"
        id="path5"
      />
    </g>
    <path
      style="display:inline;opacity:1;fill:#d8cab5;fill-opacity:0.996078;fill-rule:evenodd;stroke:#000000;stroke-width:15;stroke-linecap:butt;stroke-linejoin:round;stroke-dasharray:none;stroke-opacity:1;paint-order:normal"
      d="m 50.966213,1025 c 0,0 30,-218.1483 84.999997,-275 20,-25 280,-134.1432 280,-134.1432 V 540 h 132 132 v 75.8568 c 0,0 260,109.1432 280,134.1432 54.99999,56.8517 84.99999,275 84.99999,275"
      id="path35"
    />
    <path
      style="display:inline;fill:#d0966b;fill-opacity:1;fill-rule:evenodd;stroke:#000000;stroke-width:0.455585;stroke-linecap:butt;stroke-linejoin:round;stroke-dasharray:none;stroke-opacity:1;paint-order:normal"
      d="m 415.96621,560 -30,116.23207 160,149.44124 L 721.30957,680.29776 675.96621,560 Z"
      id="path32"
    />
    <path
      style="display:inline;opacity:1;fill:none;fill-opacity:0.996078;fill-rule:evenodd;stroke:#000000;stroke-width:15;stroke-linecap:butt;stroke-linejoin:round;stroke-dasharray:none;stroke-opacity:1;paint-order:normal"
      d="m 50.966213,1025 c 0,0 30,-218.1483 84.999997,-275 20,-25 280,-134.1432 280,-134.1432 V 540 h 132 132 v 75.8568 c 0,0 260,109.1432 280,134.1432 54.99999,56.8517 84.99999,275 84.99999,275"
      id="path39"
    />
    <path
      style="display:inline;opacity:1;fill:#d0966b;fill-opacity:1;fill-rule:evenodd;stroke:#000000;stroke-width:15;stroke-linecap:butt;stroke-linejoin:round;stroke-dasharray:none;stroke-opacity:1"
      d="M 547.96621,620.92814 C 491.78407,616.93092 454.33871,585.45126 417.61967,545.03307 393.69661,518.69994 381.91895,496.74425 371.22072,452.43029 357.92978,397.37687 358.56443,349.5776 360.96621,290 L 356.37397,165.17573 435.37106,77.339804 547.96621,72.924308 660.56136,77.339804 739.55845,165.17573 734.96621,290 c 2.40178,59.5776 3.03643,107.37687 -10.25451,162.43029 -10.69823,44.31396 -22.47589,66.26965 -46.39895,92.60278 -36.71904,40.41819 -74.1644,71.89785 -130.34654,75.89507 z"
      id="path20"
    />
    <path
      style="display:inline;fill:none;fill-opacity:1;fill-rule:nonzero;stroke:#000000;stroke-width:17.3438;stroke-linecap:round;stroke-linejoin:round;stroke-dasharray:none;stroke-opacity:1;paint-order:normal"
      d="m 490.46621,489 c 50.61217,17.5412 82.55765,8.41569 115,0"
      id="path85"
    />
    <path
      id="path19"
      style="display:none;opacity:1;fill:#000000;fill-rule:evenodd;stroke:#ffffff;stroke-width:0.5;stroke-linecap:round;stroke-linejoin:miter;stroke-dasharray:none;stroke-opacity:1"
      d="m 449.16738,464.47266 a 140,147.5 0 0 0 99.12305,43.86914 140,147.5 0 0 0 99.12305,-43.86914 h -26.74219 a 96.495094,77 0 0 1 -72.38086,26.27929 96.495094,77 0 0 1 -72.38281,-26.27929 z"
    />
    <path
      id="path26"
      style="display:inline;fill:#5d4b3b;fill-opacity:1;fill-rule:evenodd;stroke:#000000;stroke-width:1;stroke-linecap:butt;stroke-linejoin:round;stroke-dasharray:none;stroke-opacity:1;paint-order:normal"
      d="m 367.96621,418 c 11,50.66667 21.9994,101.33158 52,135.54492 30.0006,34.21335 79,51.97182 128,69.73047 49,-17.75865 97.9994,-35.51712 128,-69.73047 30.0006,-34.21334 41,-84.87825 52,-135.54492 -6.33333,14 -12.66644,28.00039 -24,40.83398 -11.33356,12.83359 -27.66666,24.49935 -44,36.16602 -2.23786,-18.33333 -4.47553,-36.66575 -23.14258,-46.76953 -18.66704,-10.10378 -53.76196,-11.97774 -88.85742,-13.85156 -35.09546,1.87382 -70.19038,3.74778 -88.85742,13.85156 -18.66704,10.10378 -20.90471,28.4362 -23.14258,46.76953 -16.33333,-11.66667 -32.66644,-23.33243 -44,-36.16602 C 380.63265,446.00039 374.29955,432 367.96621,418 Z m 157.61133,46.72852 C 538.47288,464.57376 547.96621,465 547.96621,465 c 0,0 67.51452,-3.02802 87,10 17.06132,11.40723 6.11338,43.90024 -8.82617,61 -14.93954,17.09976 -39.26582,38.99979 -78.17383,39.62891 C 509.0582,574.99979 484.73192,553.09976 469.79238,536 c -14.93955,-17.09976 -25.88749,-49.59277 -8.82617,-61 12.17843,-8.14251 43.1191,-10.01356 64.61133,-10.27148 z"
    />
    <path
      style="display:inline;fill:none;fill-opacity:1;fill-rule:evenodd;stroke:#000000;stroke-width:15;stroke-linecap:butt;stroke-linejoin:round;stroke-dasharray:none;stroke-opacity:1"
      d="M 547.96621,620.92814 C 491.78407,616.93092 454.33871,585.45126 417.61967,545.03307 393.69661,518.69994 381.91895,496.74425 371.22072,452.43029 357.92978,397.37687 358.56443,349.5776 360.96621,290 L 356.37397,165.17573 435.37106,77.339804 547.96621,72.924308 660.56136,77.339804 739.55845,165.17573 734.96621,290 c 2.40178,59.5776 3.03643,107.37687 -10.25451,162.43029 -10.69823,44.31396 -22.47589,66.26965 -46.39895,92.60278 -36.71904,40.41819 -74.1644,71.89785 -130.34654,75.89507 z"
      id="path29"
    />
    <path
      style="opacity:1;fill:#000000;fill-rule:evenodd;stroke:#ffffff;stroke-width:0.5;stroke-linecap:round;stroke-linejoin:miter;stroke-dasharray:none;stroke-opacity:1"
      d="m 516.96621,411 c -6,-4 -10,2.40989 -10,6 0,13 25,21 41,21 16,0 42,-8 42,-21 0,-3.59011 -4,-10 -10,-6 -9.72885,6.48589 -16.99999,13.03283 -32,13 -14,-0.0306 -21.29671,-6.53114 -31,-13 z"
      id="path17"
    />
    <path
      style="opacity:1;fill:#000000;fill-rule:evenodd;stroke:#ffffff;stroke-width:0.5;stroke-dasharray:none;stroke-opacity:1"
      d="m 403.96621,265 c -2.61779,2.70058 -6.17155,6.69241 -3.92495,10.6103 2.44525,3.43576 7.06639,1.70374 10.55741,1.69921 17.36346,-1.62988 34.85118,-4.78839 52.30673,-2.42575 13.71623,1.42712 27.21804,5.11624 41.0431,5.11624 3.01771,0 2.65708,-7.97323 0.0177,-10.59414 -7.61196,-7.97887 -18.45295,-11.48427 -29,-13.40586 -13.68829,-2.21802 -29.23672,-1.983 -43,-1 -8.60499,0.97548 -15.36867,1.56052 -23,6 -1.21552,0.75879 -4.04388,2.93959 -5,4 z m 288.64678,0 c 2.61779,2.70058 6.17155,6.69241 3.92495,10.6103 -2.44525,3.43576 -7.06639,1.70374 -10.55741,1.69921 -17.36346,-1.62988 -34.85118,-4.78839 -52.30673,-2.42575 C 619.95757,276.31088 606.45576,280 592.6307,280 c -3.01771,0 -2.65708,-7.97323 -0.0177,-10.59414 7.61196,-7.97887 18.45295,-11.48427 29,-13.40586 13.68829,-2.21802 29.23672,-1.983 43,-1 8.60499,0.97548 15.36867,1.56052 23,6 1.21552,0.75879 4.04388,2.93959 5,4 z"
      id="path7"
    />
    <path
      style="opacity:1;fill:#000000;fill-rule:evenodd;stroke:#ffffff;stroke-width:0.480848;stroke-dasharray:none;stroke-opacity:1"
      id="path4"
      d="m 470.46638,334 c 0,9.13593 -6.93966,16.54207 -15.50016,16.54207 -8.56051,0 -15.50017,-7.40614 -15.50017,-16.54207 0,-9.13593 6.93966,-16.54207 15.50017,-16.54207 8.5605,0 15.50016,7.40614 15.50016,16.54207 z m 155.64644,0 c 0,9.13593 6.93966,16.54207 15.50016,16.54207 8.56051,0 15.50017,-7.40614 15.50017,-16.54207 0,-9.13593 -6.93966,-16.54207 -15.50017,-16.54207 -8.5605,0 -15.50016,7.40614 -15.50016,16.54207 z"
      transform="matrix(0.999817,0,0,1.0814452,0.10033951,-27.202698)"
    />
    <path
      id="path18"
      style="display:inline;fill:#000000;fill-rule:evenodd;stroke:#000000;stroke-width:0.5;stroke-dasharray:none;stroke-opacity:1"
      d="m 565.90585,321.01354 c 3.63581,21.1526 1.32378,77.85276 74.88181,78.93686 73.51341,1.08344 76.9825,-36.99252 85.25907,-82.11013 l 4.91635,-2.58698 -7.18017,-34.87273 c 0,0 -9.2157,2.29321 -10.42435,2.13498 -41.40632,-5.42038 -119.34809,-10.97873 -139.28594,12.7788 -18.10641,-3.29434 -33.10641,-3.29434 -51.56604,0 -19.93785,-23.75753 -97.87962,-18.19918 -139.28594,-12.7788 -1.20865,0.15823 -10.42435,-2.13498 -10.42435,-2.13498 l -7.18017,34.87273 4.91635,2.58698 c 8.27657,45.11761 11.74566,83.19357 85.25907,82.11013 73.55803,-1.0841 71.246,-57.78426 74.88181,-78.93686 9.29286,-4.01354 26.29286,-4.01354 35.2325,0 z m -51.39517,-4.35476 c 0,26.65533 -7.24377,67.68003 -59.91884,68.45636 -52.64312,0.77585 -64.18665,-27.18454 -68.44703,-72.36485 -2.98487,-31.65378 128.36587,-35.86825 128.36587,3.90849 z m 67.55784,0 c 0,26.65533 7.24377,67.68003 59.91884,68.45636 52.64312,0.77585 64.18665,-27.18454 68.44703,-72.36485 2.98487,-31.65378 -128.36587,-35.86825 -128.36587,3.90849 z"
    />
    <path
      style="display:inline;fill:#d1976c;fill-opacity:1;fill-rule:evenodd;stroke:#000000;stroke-width:15;stroke-linecap:butt;stroke-linejoin:round;stroke-dasharray:none;stroke-opacity:1"
      d="m 331.51474,291.40534 c -10.17719,0.20361 -20.94133,8.41917 -21.10616,23.97009 -0.16483,15.55092 6.44038,51.61788 15.49066,79.09682 4.05197,11.98763 17.76691,46.72362 37.14171,39.05051 -5.99364,-45.30076 -3.11473,-89.3447 -12.53302,-130.01165 3.03536,0.20149 -8.816,-12.30938 -18.99319,-12.10577 z m 432.90294,0 c 10.17719,0.20361 20.94133,8.41917 21.10616,23.97009 0.16483,15.55092 -6.44038,51.61788 -15.49066,79.09682 -4.05197,11.98763 -17.76691,46.72362 -37.14171,39.05051 5.99364,-45.30076 3.11473,-89.3447 12.53302,-130.01165 -3.03536,0.20149 8.816,-12.30938 18.99319,-12.10577 z"
      id="path21"
    />
    <path
      style="fill:#2e2c28;fill-opacity:1;fill-rule:evenodd;stroke:#000000;stroke-width:15.167;stroke-linecap:butt;stroke-linejoin:round;stroke-dasharray:none;stroke-opacity:1;paint-order:normal"
      d="m 690.64267,82.170767 c -7.88263,4.847907 -24.81267,31.608753 -9.3876,71.149333 15.42507,39.54058 33.41256,53.22595 38.45386,78.57632 5.0413,25.35038 6.18281,63.60265 16.86777,77.97843 19.16829,-20.31786 26.12097,-51.14433 29.17459,-75.70615 3.05362,-24.5618 3.25017,-62.15758 -6.63842,-100.61871 -9.88861,-38.461124 -60.58756,-56.227128 -68.4702,-51.379223 z"
      id="path24"
    />
    <path
      style="display:inline;fill:#2e2c28;fill-opacity:1;fill-rule:evenodd;stroke:#000000;stroke-width:14.9561;stroke-linecap:butt;stroke-linejoin:round;stroke-dasharray:none;stroke-opacity:1;paint-order:normal"
      d="M 358.86871,312.24575 C 332.37322,267.52134 321.17373,198.72649 329.95317,160.24123 338.73262,121.75596 365.67597,72.386167 410.43734,49.984104 455.19872,27.582041 517.18842,8.8349055 574.44715,9.978047 c 33.42453,1.331331 94.41099,9.925457 109.33987,70.0106 14.92888,60.085143 -85.27051,65.100883 -129.21985,65.009843 -39.75995,0 -102.57993,-14.68582 -134.18984,15.00227 -39.75781,38.54263 -48.70722,100.72252 -61.50862,152.24499 z"
      id="path23"
    />
    <path
      style="fill:#5d4b3b;fill-opacity:1;fill-rule:evenodd;stroke:#000000;stroke-width:0.5;stroke-linecap:butt;stroke-linejoin:round;stroke-dasharray:none;stroke-opacity:1;paint-order:normal"
      d="m 547.96621,524.90235 c 0,0 -19.22209,0.1912 -26,0.0977 -7.08268,-0.0977 -5.84199,4.65561 -4,6.99995 11.00001,13.99995 30,13.80083 30,13.80083 0,0 18.99999,0.19912 30,-13.80083 1.84199,-2.34434 3.08268,-7.09765 -4,-6.99995 -6.77791,0.0935 -26,-0.0977 -26,-0.0977 z"
      id="path31"
    />
    <path
      style="fill:#d8cab5;fill-opacity:0.996078;fill-rule:evenodd;stroke:#000000;stroke-width:15;stroke-linecap:butt;stroke-linejoin:round;stroke-dasharray:none;stroke-opacity:1;paint-order:normal"
      d="M 415.96621,570 348.87398,650.75921 330.96621,770 l 104,-30.85244 -15,38.48157 128,75.49587 c 0,0 -13.82547,-48.82906 -53.32409,-102.62131 C 465.56934,710.91015 438.70178,677.47648 425.99437,646 415.22374,619.32096 415.96621,570 415.96621,570 Z"
      id="path33"
    />
    <path
      style="fill:#d8cab5;fill-opacity:0.996078;fill-rule:evenodd;stroke:#000000;stroke-width:15;stroke-linecap:butt;stroke-linejoin:round;stroke-dasharray:none;stroke-opacity:1;paint-order:normal"
      d="M 677.96621,569 745.05844,649.75921 762.96621,769 l -104,-30.85244 17,36.85244 -143.89515,87.49858 c 0,0 22.03374,-44.66282 51.39307,-88.70829 31.83026,-47.75242 74.48574,-89.55618 89.50208,-127.79029 10.51769,-26.77977 5,-77 5,-77 z"
      id="path34"
    />
    <path
      style="fill:#d0966b;fill-opacity:1;fill-rule:evenodd;stroke:#000000;stroke-width:15;stroke-linecap:round;stroke-linejoin:round;stroke-dasharray:none;stroke-opacity:1;paint-order:normal"
      d="m 175.96621,835 c 11.04419,59.47039 22.42188,121 25,195 m 719,-195 c -11.04419,59.47039 -22.42188,121 -25,195"
      id="path36"
    />
    <path
      style="fill:none;fill-opacity:1;fill-rule:evenodd;stroke:#000000;stroke-width:15;stroke-linecap:round;stroke-linejoin:round;stroke-dasharray:none;stroke-opacity:1;paint-order:normal"
      d="m 540.96621,835 c 0,0 -15.18191,36.44075 -15,55 0.42786,43.65212 -1.39409,124.0625 -1.39409,136.0218"
      id="path37"
    />
    <ellipse
      style="opacity:1;fill:#000000;fill-opacity:1;fill-rule:evenodd;stroke:none;stroke-width:10;stroke-linecap:round;stroke-linejoin:round;stroke-dasharray:none;stroke-opacity:1;paint-order:normal"
      id="path38"
      cx="561.96619"
      cy="907.43073"
      rx="15.000027"
      ry="14.869524"
    />
  </g></svg>
